# xmcd
# 
# Track frame offsets:
#     150
#     22320
#     40817
#     60325
#     79277
#     99572
#     119875
#     136232
#     153407
#     182112
#     210575
#     232522
# 
# Disc length: 3433
# 
# Revision: 1
# Processed by: cddbd v1.5.2PL0 Copyright (c) Steve Scherf et al.
# Submitted via: BonkEnc v1.0.5
# 
DISCID=9e0d670c
DTITLE=徳永英明 - Ballade of Ballade [CD1]
DYEAR=1997
DGENRE=J-Pop
TTITLE0=最後の学園祭
TTITLE1=9月のストレンジャー
TTITLE2=心の中はバラード
TTITLE3=BIRDS
TTITLE4=さよならの水彩画
TTITLE5=輝きながら・・・
TTITLE6=ため息のステイ
TTITLE7=風のエオリア
TTITLE8=Melodyー永遠の鍵ー
TTITLE9=最後の言い訳
TTITLE10=恋人
TTITLE11=君の青
EXTD=YEAR: 1997
EXTT0=
EXTT1=
EXTT2=
EXTT3=
EXTT4=
EXTT5=
EXTT6=
EXTT7=
EXTT8=
EXTT9=
EXTT10=
EXTT11=
PLAYORDER=
